<svg version="1.1" viewBox="0.0 0.0 96.0 96.0" fill="none" stroke="none" stroke-linecap="square" stroke-miterlimit="10" xmlns:xlink="http://www.w3.org/1999/xlink" xmlns="http://www.w3.org/2000/svg"><clipPath id="p.0"><path d="m0 0l96.0 0l0 96.0l-96.0 0l0 -96.0z" clip-rule="nonzero"/></clipPath><g clip-path="url(#p.0)"><path fill="#000000" fill-opacity="0.0" d="m0 0l96.0 0l0 96.0l-96.0 0z" fill-rule="evenodd"/><defs><radialGradient id="p.1" gradientUnits="userSpaceOnUse" gradientTransform="matrix(8.239068430693063 0.0 0.0 8.239068430693063 0.0 0.0)" spreadMethod="pad" cx="5.825901362972693" cy="5.825901362972693" fx="5.825901362972693" fy="5.825901362972693" r="8.239068031311035"><stop offset="0.0" stop-color="#db0000"/><stop offset="1.0" stop-color="#540303"/></radialGradient></defs><path fill="url(#p.1)" d="m0 48.0l0 0c0 -26.509668 21.490332 -48.0 48.0 -48.0l0 0c12.730392 0 24.939377 5.0571284 33.941124 14.058874c9.001747 9.001747 14.058876 21.210733 14.058876 33.941124l0 0c0 26.509666 -21.490334 48.0 -48.0 48.0l0 0c-26.509668 0 -48.0 -21.490334 -48.0 -48.0zm21.13728 0l0 0c0 14.835869 12.026852 26.862717 26.86272 26.862717c14.835869 0 26.862717 -12.026848 26.862717 -26.862717l0 0c0 -14.835869 -12.026848 -26.86272 -26.862717 -26.86272l0 0c-14.835869 0 -26.86272 12.026852 -26.86272 26.86272z" fill-rule="evenodd"/></g></svg>